<svg xmlns="http://www.w3.org/2000/svg" width="8" height="15" viewBox="0 0 8 15">
  <defs>
    <style>
      .cls-1 {
        fill: #fff;
        fill-rule: evenodd;
      }
    </style>
  </defs>
  <path id="arrow_copy_6" data-name="arrow copy 6" class="cls-1" d="M1608.72,6280.75l6.06-6.67a0.878,0.878,0,0,0,.22-0.59,0.846,0.846,0,0,0-.22-0.57l-6.06-6.67a0.708,0.708,0,0,0-.52-0.24,0.694,0.694,0,0,0-.53.24l-0.45.49a0.906,0.906,0,0,0,0,1.16l5.09,5.6-5.09,5.6a0.875,0.875,0,0,0,0,1.16l0.45,0.49A0.694,0.694,0,0,0,1608.72,6280.75Z" transform="translate(-1607 -6266)"/>
</svg>
