<svg xmlns="http://www.w3.org/2000/svg" width="12.5" height="21.47" viewBox="0 0 12.5 21.47">
  <defs>
    <style>
      .cls-1 {
        fill: #fff;
        fill-rule: evenodd;
      }
    </style>
  </defs>
  <path id="arrow_copy_3" data-name="arrow copy 3" class="cls-1" d="M483.728,4019.54l-9.5,9.57a1.2,1.2,0,0,0,0,1.67l9.488,9.56a1.171,1.171,0,0,0,1.65,0l0.7-.71a1.156,1.156,0,0,0,.34-0.83,1.173,1.173,0,0,0-.34-0.83l-7.969-8.03,7.978-8.04a1.161,1.161,0,0,0,.341-0.83,1.178,1.178,0,0,0-.341-0.83l-0.7-.7A1.159,1.159,0,0,0,483.728,4019.54Z" transform="translate(-473.906 -4019.22)"/>
</svg>
