<svg xmlns="http://www.w3.org/2000/svg" width="63" height="46" viewBox="0 0 63 46">
  <defs>
    <style>
      .cls-1 {
        fill: #c7cacf;
        fill-rule: evenodd;
      }
    </style>
  </defs>
  <path id="_" data-name="“" class="cls-1" d="M1220.79,4920.99h-11.95l-12.76,19.95c-2.44,3.88-4.07,7.48-4.07,11.92,0,8.86,5.97,14.13,13.03,14.13,7.33,0,12.77-5.82,12.77-13.86,0-4.98-1.91-9.42-5.98-11.91Zm34.22,0h-11.95l-12.76,19.95c-2.45,3.88-4.08,7.48-4.08,11.92,0,8.86,5.98,14.13,13.04,14.13,7.33,0,12.76-5.82,12.76-13.86,0-4.98-1.9-9.42-5.97-11.91Z" transform="translate(-1192 -4921)"/>
</svg>
