<svg xmlns="http://www.w3.org/2000/svg" width="30.187" height="14" viewBox="0 0 30.187 14">
  <defs>
    <style>
      .cls-1 {
        fill: #747a8c;
        fill-rule: evenodd;
      }
    </style>
  </defs>
  <path id="Forma_1" data-name="Forma 1" class="cls-1" d="M997.822,5144.53l-6.711-6.39a0.57,0.57,0,0,0-.611-0.09,0.538,0.538,0,0,0-.333.53v4.09H968.356a0.528,0.528,0,0,0-.4.16,0.588,0.588,0,0,0-.157.42v3.5a0.588,0.588,0,0,0,.157.42,0.528,0.528,0,0,0,.4.16h21.811v4.09a0.558,0.558,0,0,0,.333.53,0.541,0.541,0,0,0,.612-0.11l6.711-6.46a0.615,0.615,0,0,0,.174-0.44A0.577,0.577,0,0,0,997.822,5144.53Z" transform="translate(-967.813 -5138)"/>
</svg>
