<svg xmlns="http://www.w3.org/2000/svg" width="12.5" height="21.47" viewBox="0 0 12.5 21.47">
  <defs>
    <style>
      .cls-1 {
        fill: #fff;
        fill-rule: evenodd;
      }
    </style>
  </defs>
  <path id="arrow_copy_4" data-name="arrow copy 4" class="cls-1" d="M1439.27,4019.54l9.5,9.57a1.2,1.2,0,0,1,0,1.67l-9.49,9.56a1.171,1.171,0,0,1-1.65,0l-0.7-.71a1.156,1.156,0,0,1-.34-0.83,1.173,1.173,0,0,1,.34-0.83l7.97-8.03-7.98-8.04a1.156,1.156,0,0,1-.34-0.83,1.173,1.173,0,0,1,.34-0.83l0.7-.7A1.159,1.159,0,0,1,1439.27,4019.54Z" transform="translate(-1436.59 -4019.22)"/>
</svg>
