<svg xmlns="http://www.w3.org/2000/svg" width="30.188" height="14" viewBox="0 0 30.188 14">
  <defs>
    <style>
      .cls-1 {
        fill: #747a8c;
        fill-rule: evenodd;
      }
    </style>
  </defs>
  <path id="Forma_1_copy" data-name="Forma 1 copy" class="cls-1" d="M916.177,5145.47l6.711,6.38a0.536,0.536,0,0,0,.612.09,0.521,0.521,0,0,0,.332-0.53v-4.08h21.811a0.526,0.526,0,0,0,.4-0.16,0.584,0.584,0,0,0,.158-0.42v-3.5a0.584,0.584,0,0,0-.158-0.42,0.536,0.536,0,0,0-.4-0.17H923.832v-4.08a0.557,0.557,0,0,0-.332-0.53,0.525,0.525,0,0,0-.612.11l-6.711,6.45a0.632,0.632,0,0,0-.174.44A0.585,0.585,0,0,0,916.177,5145.47Z" transform="translate(-916 -5138)"/>
</svg>
